# xmcd
#
# Track frame offsets:
#	150
#	17672
#	29107
#	44461
#	61949
#	82992
#	103222
#	119479
#	135172
#	149762
#
# Disc length: 2190 seconds
#
# Revision: 1
# Processed by: cddbd v1.5.2PL0 Copyright (c) Steve Scherf et al.
# Submitted via: audiograbber 1.83.01
#
DISCID=8d088c0a
DTITLE=Bex Marshall - Kitchen Table
DYEAR=2008
DGENRE=Blues
TTITLE0=Kitchen Table
TTITLE1=Red Light
TTITLE2=Hot Headed Man
TTITLE3=Black Guitar
TTITLE4=Stand Up
TTITLE5=Here Is My Heart
TTITLE6=Little Bird
TTITLE7=Bad Bad Girl
TTITLE8=Too Much Rock and Roll
TTITLE9=Head In The Clouds
EXTD=
EXTT0=
EXTT1=
EXTT2=
EXTT3=
EXTT4=
EXTT5=
EXTT6=
EXTT7=
EXTT8=
EXTT9=
PLAYORDER=
